<mxfile host="app.diagrams.net" agent="Mozilla/5.0 (Macintosh; Intel Mac OS X 10_15_7) AppleWebKit/605.1.15 (KHTML, like Gecko) Version/18.0.1 Safari/605.1.15" version="24.8.3">
  <diagram id="Ht1M8jgEwFfnCIfOTk4-" name="Page-1">
    <mxGraphModel dx="2369" dy="973" grid="1" gridSize="10" guides="1" tooltips="1" connect="1" arrows="1" fold="1" page="0" pageScale="1" pageWidth="827" pageHeight="1169" background="none" math="0" shadow="0">
      <root>
        <mxCell id="0" />
        <mxCell id="1" parent="0" />
        <mxCell id="-QjtrjUzRDEMRZ5MF8oH-47" value="自动化测试" style="text;html=1;resizable=0;points=[];autosize=1;align=left;verticalAlign=top;spacingTop=-4;fontSize=30;fontStyle=1;rounded=0;" parent="1" vertex="1">
          <mxGeometry x="-120" y="65.5" width="170" height="40" as="geometry" />
        </mxCell>
        <mxCell id="-QjtrjUzRDEMRZ5MF8oH-48" value="流程总览" style="text;html=1;resizable=0;points=[];autosize=1;align=left;verticalAlign=top;spacingTop=-4;fontSize=16;rounded=0;" parent="1" vertex="1">
          <mxGeometry x="-110" y="115.5" width="90" height="30" as="geometry" />
        </mxCell>
        <mxCell id="SCVMTBWpLvtzJIhz15lM-1" value="" style="line;strokeWidth=2;html=1;fontSize=14;rounded=0;" parent="1" vertex="1">
          <mxGeometry x="-120" y="140" width="1720" height="15.02" as="geometry" />
        </mxCell>
        <mxCell id="G6lWxy4UC_xkW3f3Wh48-16" style="edgeStyle=orthogonalEdgeStyle;orthogonalLoop=1;jettySize=auto;html=1;" parent="1" source="G6lWxy4UC_xkW3f3Wh48-1" edge="1">
          <mxGeometry relative="1" as="geometry">
            <mxPoint x="650" y="430" as="targetPoint" />
          </mxGeometry>
        </mxCell>
        <mxCell id="G6lWxy4UC_xkW3f3Wh48-42" value="&lt;span style=&quot;color: rgb(0, 0, 0); font-family: Helvetica; font-style: normal; font-variant-ligatures: normal; font-variant-caps: normal; font-weight: 400; letter-spacing: normal; orphans: 2; text-align: center; text-indent: 0px; text-transform: none; widows: 2; word-spacing: 0px; -webkit-text-stroke-width: 0px; white-space: nowrap; background-color: rgb(255, 255, 255); text-decoration-thickness: initial; text-decoration-style: initial; text-decoration-color: initial; float: none; display: inline !important;&quot;&gt;&lt;font style=&quot;font-size: 14px;&quot;&gt;1. 场景服务端部署或appConfig配置应用 调用接口&lt;/font&gt;&lt;/span&gt;" style="edgeLabel;html=1;align=center;verticalAlign=middle;resizable=0;points=[];" parent="G6lWxy4UC_xkW3f3Wh48-16" vertex="1" connectable="0">
          <mxGeometry x="-0.3111" y="-4" relative="1" as="geometry">
            <mxPoint x="43" y="-4" as="offset" />
          </mxGeometry>
        </mxCell>
        <mxCell id="G6lWxy4UC_xkW3f3Wh48-1" value="智能场景" style="points=[[0,0],[0.25,0],[0.5,0],[0.75,0],[1,0],[1,0.25],[1,0.5],[1,0.75],[1,1],[0.75,1],[0.5,1],[0.25,1],[0,1],[0,0.75],[0,0.5],[0,0.25]];outlineConnect=0;gradientColor=none;html=1;whiteSpace=wrap;fontSize=12;fontStyle=0;container=1;pointerEvents=0;collapsible=0;recursiveResize=0;shape=mxgraph.aws4.group;grIcon=mxgraph.aws4.group_ec2_instance_contents;strokeColor=#D86613;fillColor=none;verticalAlign=top;align=left;spacingLeft=30;fontColor=#D86613;dashed=0;" parent="1" vertex="1">
          <mxGeometry x="-80" y="196.98" width="320" height="460" as="geometry" />
        </mxCell>
        <mxCell id="G6lWxy4UC_xkW3f3Wh48-62" value="" style="group" parent="G6lWxy4UC_xkW3f3Wh48-1" vertex="1" connectable="0">
          <mxGeometry x="104" y="40" width="78" height="108" as="geometry" />
        </mxCell>
        <mxCell id="G6lWxy4UC_xkW3f3Wh48-48" value="" style="sketch=0;points=[[0,0,0],[0.25,0,0],[0.5,0,0],[0.75,0,0],[1,0,0],[0,1,0],[0.25,1,0],[0.5,1,0],[0.75,1,0],[1,1,0],[0,0.25,0],[0,0.5,0],[0,0.75,0],[1,0.25,0],[1,0.5,0],[1,0.75,0]];outlineConnect=0;fontColor=#232F3E;fillColor=#ED7100;strokeColor=#ffffff;dashed=0;verticalLabelPosition=bottom;verticalAlign=top;align=center;html=1;fontSize=12;fontStyle=0;aspect=fixed;shape=mxgraph.aws4.resourceIcon;resIcon=mxgraph.aws4.ec2;" parent="G6lWxy4UC_xkW3f3Wh48-62" vertex="1">
          <mxGeometry width="78" height="78" as="geometry" />
        </mxCell>
        <mxCell id="G6lWxy4UC_xkW3f3Wh48-57" value="EC2" style="text;html=1;align=center;verticalAlign=middle;resizable=0;points=[];autosize=1;strokeColor=none;fillColor=none;" parent="G6lWxy4UC_xkW3f3Wh48-62" vertex="1">
          <mxGeometry x="14" y="78" width="50" height="30" as="geometry" />
        </mxCell>
        <mxCell id="G6lWxy4UC_xkW3f3Wh48-63" value="" style="group" parent="G6lWxy4UC_xkW3f3Wh48-1" vertex="1" connectable="0">
          <mxGeometry x="104" y="310" width="78" height="108" as="geometry" />
        </mxCell>
        <mxCell id="G6lWxy4UC_xkW3f3Wh48-64" value="" style="sketch=0;points=[[0,0,0],[0.25,0,0],[0.5,0,0],[0.75,0,0],[1,0,0],[0,1,0],[0.25,1,0],[0.5,1,0],[0.75,1,0],[1,1,0],[0,0.25,0],[0,0.5,0],[0,0.75,0],[1,0.25,0],[1,0.5,0],[1,0.75,0]];outlineConnect=0;fontColor=#232F3E;fillColor=#ED7100;strokeColor=#ffffff;dashed=0;verticalLabelPosition=bottom;verticalAlign=top;align=center;html=1;fontSize=12;fontStyle=0;aspect=fixed;shape=mxgraph.aws4.resourceIcon;resIcon=mxgraph.aws4.ec2;" parent="G6lWxy4UC_xkW3f3Wh48-63" vertex="1">
          <mxGeometry width="78" height="78" as="geometry" />
        </mxCell>
        <mxCell id="G6lWxy4UC_xkW3f3Wh48-65" value="EC2" style="text;html=1;align=center;verticalAlign=middle;resizable=0;points=[];autosize=1;strokeColor=none;fillColor=none;" parent="G6lWxy4UC_xkW3f3Wh48-63" vertex="1">
          <mxGeometry x="14" y="78" width="50" height="30" as="geometry" />
        </mxCell>
        <mxCell id="G6lWxy4UC_xkW3f3Wh48-66" value="" style="group" parent="G6lWxy4UC_xkW3f3Wh48-1" vertex="1" connectable="0">
          <mxGeometry x="104" y="180" width="78" height="108" as="geometry" />
        </mxCell>
        <mxCell id="G6lWxy4UC_xkW3f3Wh48-67" value="" style="sketch=0;points=[[0,0,0],[0.25,0,0],[0.5,0,0],[0.75,0,0],[1,0,0],[0,1,0],[0.25,1,0],[0.5,1,0],[0.75,1,0],[1,1,0],[0,0.25,0],[0,0.5,0],[0,0.75,0],[1,0.25,0],[1,0.5,0],[1,0.75,0]];outlineConnect=0;fontColor=#232F3E;fillColor=#ED7100;strokeColor=#ffffff;dashed=0;verticalLabelPosition=bottom;verticalAlign=top;align=center;html=1;fontSize=12;fontStyle=0;aspect=fixed;shape=mxgraph.aws4.resourceIcon;resIcon=mxgraph.aws4.ec2;" parent="G6lWxy4UC_xkW3f3Wh48-66" vertex="1">
          <mxGeometry width="78" height="78" as="geometry" />
        </mxCell>
        <mxCell id="G6lWxy4UC_xkW3f3Wh48-68" value="EC2" style="text;html=1;align=center;verticalAlign=middle;resizable=0;points=[];autosize=1;strokeColor=none;fillColor=none;" parent="G6lWxy4UC_xkW3f3Wh48-66" vertex="1">
          <mxGeometry x="14" y="78" width="50" height="30" as="geometry" />
        </mxCell>
        <mxCell id="G6lWxy4UC_xkW3f3Wh48-55" style="edgeStyle=orthogonalEdgeStyle;orthogonalLoop=1;jettySize=auto;html=1;entryX=0;entryY=0.5;entryDx=0;entryDy=0;entryPerimeter=0;" parent="1" target="sZ3fd2YOuOZ2jd68ah3e-4" edge="1">
          <mxGeometry relative="1" as="geometry">
            <mxPoint x="728" y="430" as="sourcePoint" />
            <mxPoint x="810" y="430" as="targetPoint" />
          </mxGeometry>
        </mxCell>
        <mxCell id="sZ3fd2YOuOZ2jd68ah3e-6" value="&lt;font style=&quot;font-size: 14px;&quot;&gt;/check&lt;/font&gt;" style="edgeLabel;html=1;align=center;verticalAlign=middle;resizable=0;points=[];" parent="G6lWxy4UC_xkW3f3Wh48-55" vertex="1" connectable="0">
          <mxGeometry x="-0.122" y="1" relative="1" as="geometry">
            <mxPoint as="offset" />
          </mxGeometry>
        </mxCell>
        <mxCell id="G6lWxy4UC_xkW3f3Wh48-78" value="" style="group" parent="1" vertex="1" connectable="0">
          <mxGeometry x="1513" y="250" width="78" height="108" as="geometry" />
        </mxCell>
        <mxCell id="G6lWxy4UC_xkW3f3Wh48-76" value="" style="sketch=0;points=[[0,0,0],[0.25,0,0],[0.5,0,0],[0.75,0,0],[1,0,0],[0,1,0],[0.25,1,0],[0.5,1,0],[0.75,1,0],[1,1,0],[0,0.25,0],[0,0.5,0],[0,0.75,0],[1,0.25,0],[1,0.5,0],[1,0.75,0]];outlineConnect=0;fontColor=#232F3E;fillColor=#7AA116;strokeColor=#ffffff;dashed=0;verticalLabelPosition=bottom;verticalAlign=top;align=center;html=1;fontSize=12;fontStyle=0;aspect=fixed;shape=mxgraph.aws4.resourceIcon;resIcon=mxgraph.aws4.s3;" parent="G6lWxy4UC_xkW3f3Wh48-78" vertex="1">
          <mxGeometry width="78" height="78" as="geometry" />
        </mxCell>
        <mxCell id="G6lWxy4UC_xkW3f3Wh48-77" value="S3" style="text;html=1;align=center;verticalAlign=middle;resizable=0;points=[];autosize=1;strokeColor=none;fillColor=none;" parent="G6lWxy4UC_xkW3f3Wh48-78" vertex="1">
          <mxGeometry x="19" y="78" width="40" height="30" as="geometry" />
        </mxCell>
        <mxCell id="G6lWxy4UC_xkW3f3Wh48-79" style="edgeStyle=orthogonalEdgeStyle;orthogonalLoop=1;jettySize=auto;html=1;entryX=0;entryY=0.5;entryDx=0;entryDy=0;entryPerimeter=0;exitX=0.5;exitY=0;exitDx=0;exitDy=0;exitPerimeter=0;" parent="1" source="sZ3fd2YOuOZ2jd68ah3e-4" edge="1">
          <mxGeometry relative="1" as="geometry">
            <Array as="points">
              <mxPoint x="920" y="390" />
              <mxPoint x="920" y="290" />
              <mxPoint x="1230" y="290" />
              <mxPoint x="1230" y="289" />
            </Array>
            <mxPoint x="840.0300000000002" y="389.9960000000001" as="sourcePoint" />
            <mxPoint x="1513" y="289.01" as="targetPoint" />
          </mxGeometry>
        </mxCell>
        <mxCell id="G6lWxy4UC_xkW3f3Wh48-83" value="&lt;font style=&quot;font-size: 14px;&quot;&gt;2.检查version与之前是否一致&lt;/font&gt;" style="edgeLabel;html=1;align=center;verticalAlign=middle;resizable=0;points=[];" parent="G6lWxy4UC_xkW3f3Wh48-79" vertex="1" connectable="0">
          <mxGeometry x="-0.2381" y="1" relative="1" as="geometry">
            <mxPoint x="75" y="1" as="offset" />
          </mxGeometry>
        </mxCell>
        <mxCell id="G6lWxy4UC_xkW3f3Wh48-84" value="version: 包括场景服务程序version 以及appconfig version" style="text;html=1;align=center;verticalAlign=middle;resizable=0;points=[];autosize=1;strokeColor=none;fillColor=none;" parent="1" vertex="1">
          <mxGeometry x="1193" y="250" width="320" height="30" as="geometry" />
        </mxCell>
        <mxCell id="G6lWxy4UC_xkW3f3Wh48-86" value="内部业务服务程序" style="points=[[0,0],[0.25,0],[0.5,0],[0.75,0],[1,0],[1,0.25],[1,0.5],[1,0.75],[1,1],[0.75,1],[0.5,1],[0.25,1],[0,1],[0,0.75],[0,0.5],[0,0.25]];outlineConnect=0;gradientColor=none;html=1;whiteSpace=wrap;fontSize=12;fontStyle=0;container=1;pointerEvents=0;collapsible=0;recursiveResize=0;shape=mxgraph.aws4.group;grIcon=mxgraph.aws4.group_on_premise;strokeColor=#7D8998;fillColor=none;verticalAlign=top;align=left;spacingLeft=30;fontColor=#5A6C86;dashed=0;" parent="1" vertex="1">
          <mxGeometry x="-120" y="164" width="440" height="706" as="geometry" />
        </mxCell>
        <mxCell id="G6lWxy4UC_xkW3f3Wh48-87" style="edgeStyle=orthogonalEdgeStyle;orthogonalLoop=1;jettySize=auto;html=1;exitX=0.481;exitY=0.869;exitDx=0;exitDy=0;exitPerimeter=0;" parent="1" source="sZ3fd2YOuOZ2jd68ah3e-5" target="G6lWxy4UC_xkW3f3Wh48-86" edge="1">
          <mxGeometry relative="1" as="geometry">
            <mxPoint x="429.99999999999955" y="831.6149999999999" as="targetPoint" />
            <Array as="points">
              <mxPoint x="918" y="832" />
            </Array>
            <mxPoint x="920.9999999999995" y="568.3899999999998" as="sourcePoint" />
          </mxGeometry>
        </mxCell>
        <mxCell id="G6lWxy4UC_xkW3f3Wh48-88" value="&lt;font style=&quot;font-size: 14px;&quot;&gt;3.version有变化则开始集成测试流程&lt;/font&gt;" style="edgeLabel;html=1;align=center;verticalAlign=middle;resizable=0;points=[];" parent="G6lWxy4UC_xkW3f3Wh48-87" vertex="1" connectable="0">
          <mxGeometry x="0.2682" y="2" relative="1" as="geometry">
            <mxPoint x="5" y="-2" as="offset" />
          </mxGeometry>
        </mxCell>
        <mxCell id="G6lWxy4UC_xkW3f3Wh48-89" value="" style="sketch=0;points=[[0,0,0],[0.25,0,0],[0.5,0,0],[0.75,0,0],[1,0,0],[0,1,0],[0.25,1,0],[0.5,1,0],[0.75,1,0],[1,1,0],[0,0.25,0],[0,0.5,0],[0,0.75,0],[1,0.25,0],[1,0.5,0],[1,0.75,0]];outlineConnect=0;fontColor=#232F3E;fillColor=#E7157B;strokeColor=#ffffff;dashed=0;verticalLabelPosition=bottom;verticalAlign=top;align=center;html=1;fontSize=12;fontStyle=0;aspect=fixed;shape=mxgraph.aws4.resourceIcon;resIcon=mxgraph.aws4.sns;" parent="1" vertex="1">
          <mxGeometry x="1561" y="468" width="78" height="78" as="geometry" />
        </mxCell>
        <mxCell id="G6lWxy4UC_xkW3f3Wh48-90" style="edgeStyle=orthogonalEdgeStyle;orthogonalLoop=1;jettySize=auto;html=1;entryX=0;entryY=0.5;entryDx=0;entryDy=0;entryPerimeter=0;" parent="1" source="sZ3fd2YOuOZ2jd68ah3e-4" target="G6lWxy4UC_xkW3f3Wh48-89" edge="1">
          <mxGeometry relative="1" as="geometry">
            <Array as="points">
              <mxPoint x="1371" y="429" />
              <mxPoint x="1371" y="507" />
            </Array>
            <mxPoint x="1320" y="429" as="sourcePoint" />
          </mxGeometry>
        </mxCell>
        <mxCell id="G6lWxy4UC_xkW3f3Wh48-91" value="&lt;font style=&quot;font-size: 14px;&quot;&gt;4. 集成测试完成 发送测试报告&lt;/font&gt;" style="edgeLabel;html=1;align=center;verticalAlign=middle;resizable=0;points=[];" parent="G6lWxy4UC_xkW3f3Wh48-90" vertex="1" connectable="0">
          <mxGeometry x="0.0324" relative="1" as="geometry">
            <mxPoint x="-70" y="13" as="offset" />
          </mxGeometry>
        </mxCell>
        <mxCell id="sZ3fd2YOuOZ2jd68ah3e-3" value="" style="group" parent="1" vertex="1" connectable="0">
          <mxGeometry x="880" y="390" width="78" height="108" as="geometry" />
        </mxCell>
        <mxCell id="sZ3fd2YOuOZ2jd68ah3e-4" value="" style="sketch=0;points=[[0,0,0],[0.25,0,0],[0.5,0,0],[0.75,0,0],[1,0,0],[0,1,0],[0.25,1,0],[0.5,1,0],[0.75,1,0],[1,1,0],[0,0.25,0],[0,0.5,0],[0,0.75,0],[1,0.25,0],[1,0.5,0],[1,0.75,0]];outlineConnect=0;fontColor=#232F3E;fillColor=#ED7100;strokeColor=#ffffff;dashed=0;verticalLabelPosition=bottom;verticalAlign=top;align=center;html=1;fontSize=12;fontStyle=0;aspect=fixed;shape=mxgraph.aws4.resourceIcon;resIcon=mxgraph.aws4.ec2;" parent="sZ3fd2YOuOZ2jd68ah3e-3" vertex="1">
          <mxGeometry width="78" height="78" as="geometry" />
        </mxCell>
        <mxCell id="sZ3fd2YOuOZ2jd68ah3e-5" value="EC2" style="text;html=1;align=center;verticalAlign=middle;resizable=0;points=[];autosize=1;strokeColor=none;fillColor=none;" parent="sZ3fd2YOuOZ2jd68ah3e-3" vertex="1">
          <mxGeometry x="14" y="78" width="50" height="30" as="geometry" />
        </mxCell>
        <mxCell id="sZ3fd2YOuOZ2jd68ah3e-7" value="" style="group" parent="1" vertex="1" connectable="0">
          <mxGeometry x="650" y="395" width="76.5" height="123" as="geometry" />
        </mxCell>
        <mxCell id="sZ3fd2YOuOZ2jd68ah3e-1" value="" style="outlineConnect=0;dashed=0;verticalLabelPosition=bottom;verticalAlign=top;align=center;html=1;shape=mxgraph.aws3.elastic_load_balancing;fillColor=#F58534;gradientColor=none;" parent="sZ3fd2YOuOZ2jd68ah3e-7" vertex="1">
          <mxGeometry width="76.5" height="93" as="geometry" />
        </mxCell>
        <mxCell id="sZ3fd2YOuOZ2jd68ah3e-2" value="elb" style="text;html=1;align=center;verticalAlign=middle;resizable=0;points=[];autosize=1;strokeColor=none;fillColor=none;" parent="sZ3fd2YOuOZ2jd68ah3e-7" vertex="1">
          <mxGeometry x="18.25" y="93" width="40" height="30" as="geometry" />
        </mxCell>
        <mxCell id="sZ3fd2YOuOZ2jd68ah3e-18" value="集成测试程序" style="points=[[0,0],[0.25,0],[0.5,0],[0.75,0],[1,0],[1,0.25],[1,0.5],[1,0.75],[1,1],[0.75,1],[0.5,1],[0.25,1],[0,1],[0,0.75],[0,0.5],[0,0.25]];outlineConnect=0;gradientColor=none;html=1;whiteSpace=wrap;fontSize=12;fontStyle=0;container=1;pointerEvents=0;collapsible=0;recursiveResize=0;shape=mxgraph.aws4.group;grIcon=mxgraph.aws4.group_ec2_instance_contents;strokeColor=#D86613;fillColor=none;verticalAlign=top;align=left;spacingLeft=30;fontColor=#D86613;dashed=0;" parent="1" vertex="1">
          <mxGeometry x="820" y="310" width="180" height="250" as="geometry" />
        </mxCell>
        <mxCell id="zCQY6rfgZFlJ8OvqSEVa-1" value="" style="shape=image;html=1;verticalAlign=top;verticalLabelPosition=bottom;labelBackgroundColor=#f0ffff;imageAspect=0;aspect=fixed;image=https://cdn1.iconfinder.com/data/icons/unicons-line-vol-5/24/process-128.png" vertex="1" parent="1">
          <mxGeometry x="540" y="510" width="128" height="128" as="geometry" />
        </mxCell>
        <mxCell id="zCQY6rfgZFlJ8OvqSEVa-2" style="edgeStyle=orthogonalEdgeStyle;rounded=0;orthogonalLoop=1;jettySize=auto;html=1;entryX=1;entryY=0.5;entryDx=0;entryDy=0;" edge="1" parent="1" source="sZ3fd2YOuOZ2jd68ah3e-5" target="zCQY6rfgZFlJ8OvqSEVa-1">
          <mxGeometry relative="1" as="geometry" />
        </mxCell>
        <mxCell id="zCQY6rfgZFlJ8OvqSEVa-3" value="&lt;h1 style=&quot;margin-top: 0px;&quot;&gt;&lt;span style=&quot;font-weight: 400; text-align: center; white-space: nowrap; background-color: rgb(240, 255, 255);&quot;&gt;周期性定时任务测试&lt;/span&gt;&lt;br&gt;&lt;/h1&gt;&lt;p&gt;&lt;font style=&quot;font-size: 14px;&quot;&gt;&lt;span style=&quot;text-wrap-mode: nowrap; background-color: rgb(240, 255, 255);&quot;&gt;服务化测试周期性定时任务&lt;br&gt;&lt;/span&gt;&lt;span style=&quot;text-wrap-mode: nowrap; background-color: rgb(240, 255, 255);&quot;&gt;目前会在每周的二、五测试预定的定时场景是否按预期期望执行&lt;/span&gt;&lt;/font&gt;&lt;/p&gt;" style="text;html=1;whiteSpace=wrap;overflow=hidden;rounded=0;" vertex="1" parent="1">
          <mxGeometry x="500" y="640" width="410" height="120" as="geometry" />
        </mxCell>
        <mxCell id="zCQY6rfgZFlJ8OvqSEVa-8" value="&lt;font style=&quot;font-size: 24px;&quot;&gt;集成测试由两部分构成&lt;/font&gt;&lt;div&gt;&lt;ol&gt;&lt;li&gt;&lt;font size=&quot;3&quot;&gt;设备触发类的场景测试&lt;br&gt;&lt;/font&gt;&lt;/li&gt;&lt;li&gt;&lt;font size=&quot;3&quot;&gt;周期性定时场景测试&lt;/font&gt;&lt;br&gt;&lt;/li&gt;&lt;/ol&gt;&lt;/div&gt;" style="text;html=1;align=left;verticalAlign=middle;resizable=0;points=[];autosize=1;strokeColor=none;fillColor=none;" vertex="1" parent="1">
          <mxGeometry x="-120" y="910" width="260" height="100" as="geometry" />
        </mxCell>
      </root>
    </mxGraphModel>
  </diagram>
</mxfile>
